<?xml version="1.0" encoding="UTF-8" standalone="no"?>
<svg width="24px" height="24px" viewBox="0 0 24 24" version="1.1" xmlns="http://www.w3.org/2000/svg" xmlns:xlink="http://www.w3.org/1999/xlink">
    <!-- Generator: Sketch 39.1 (31720) - http://www.bohemiancoding.com/sketch -->
    <title>ic_积分动态@3x</title>
    <desc>Created with Sketch.</desc>
    <defs></defs>
    <g id="切图" stroke="none" stroke-width="1" fill="none" fill-rule="evenodd">
        <g id="bar-灰色" transform="translate(-45.000000, -7.000000)">
            <g id="ic_积分动态" transform="translate(45.000000, 7.000000)">
                <g id="动态" transform="translate(0.000000, 6.000000)">
                    <path d="M8.51885986,4 C9.62342936,4 10.5188599,3.1045695 10.5188599,2 C10.5188599,0.8954305 9.62342936,0 8.51885986,0 C7.41429036,0 6.51885986,0.8954305 6.51885986,2 C6.51885986,3.1045695 7.41429036,4 8.51885986,4 Z" id="Oval-2" fill="#777777"></path>
                    <circle id="Oval-2-Copy-2" fill="#777777" cx="2" cy="9" r="2"></circle>
                    <circle id="Oval-2-Copy-3" fill="#777777" cx="22" cy="2" r="2"></circle>
                    <path d="M14.0450439,11.0834961 C15.1496134,11.0834961 16.0450439,10.1880656 16.0450439,9.08349609 C16.0450439,7.97892659 15.1496134,7.08349609 14.0450439,7.08349609 C12.9404744,7.08349609 12.0450439,7.97892659 12.0450439,9.08349609 C12.0450439,10.1880656 12.9404744,11.0834961 14.0450439,11.0834961 Z" id="Oval-2-Copy" fill="#777777"></path>
                    <polyline id="Path-2" stroke="#777777" stroke-width="2" points="2.02923584 8.95819092 8.57391357 2.3057251 14.0057373 8.95819092 22.0064697 2.00506592"></polyline>
                </g>
                <rect opacity="0.5" x="0" y="0" width="24" height="24"></rect>
            </g>
        </g>
    </g>
</svg>