<?xml version="1.0" encoding="UTF-8" standalone="no"?>
<svg width="24px" height="24px" viewBox="0 0 24 24" version="1.1" xmlns="http://www.w3.org/2000/svg" xmlns:xlink="http://www.w3.org/1999/xlink">
    <!-- Generator: Sketch 39.1 (31720) - http://www.bohemiancoding.com/sketch -->
    <title>ic_积分榜@3x</title>
    <desc>Created with Sketch.</desc>
    <defs></defs>
    <g id="切图" stroke="none" stroke-width="1" fill="none" fill-rule="evenodd">
        <g id="bar-灰色" transform="translate(-182.000000, -7.000000)">
            <g id="ic_积分榜" transform="translate(182.000000, 7.000000)">
                <path d="M0,22 C0,21.4477153 0.44746922,21 1.00069463,21 L22.9993054,21 C23.5519738,21 24,21.4438648 24,22 C24,22.5522847 23.5525308,23 22.9993054,23 L1.00069463,23 C0.448026248,23 0,22.5561352 0,22 Z M18,19 C17.4477153,19 17,18.5522847 17,18 L17,7 C17,6.44771525 17.4477153,6 18,6 C18.5522847,6 19,6.44771525 19,7 L19,18 C19,18.5522847 18.5522847,19 18,19 Z M14,19 C13.4477153,19 13,18.5522847 13,18 L13,11 C13,10.4477153 13.4477153,10 14,10 C14.5522847,10 15,10.4477153 15,11 L15,18 C15,18.5522847 14.5522847,19 14,19 Z M10,19 C9.44771525,19 9,18.5522847 9,18 L9,2 C9,1.44771525 9.44771525,1 10,1 C10.5522847,1 11,1.44771525 11,2 L11,18 C11,18.5522847 10.5522847,19 10,19 Z M6,19 C5.44771525,19 5,18.5522847 5,18 L5,8 C5,7.44771525 5.44771525,7 6,7 C6.55228475,7 7,7.44771525 7,8 L7,18 C7,18.5522847 6.55228475,19 6,19 Z" id="Combined-Shape" fill="#777777"></path>
                <rect opacity="0.5" x="0" y="0" width="24" height="24"></rect>
            </g>
        </g>
    </g>
</svg>