<?xml version="1.0" encoding="UTF-8" standalone="no"?>
<svg width="25px" height="25px" viewBox="0 0 25 25" version="1.1" xmlns="http://www.w3.org/2000/svg" xmlns:xlink="http://www.w3.org/1999/xlink">
    <!-- Generator: Sketch 39.1 (31720) - http://www.bohemiancoding.com/sketch -->
    <title>ic_我的积分2@3x</title>
    <desc>Created with Sketch.</desc>
    <defs></defs>
    <g id="切图" stroke="none" stroke-width="1" fill="none" fill-rule="evenodd">
        <g id="bar-蓝色" transform="translate(-310.000000, -7.000000)">
            <g id="ic_我的积分" transform="translate(310.000000, 7.000000)">
                <path d="M21.4444444,24 C21.1372222,24 20.8888889,23.7485848 20.8888889,23.4388054 C20.8888889,21.0402596 19.9644444,18.7859409 18.2855556,17.0894495 C18.0683333,16.8705836 18.0683333,16.5147863 18.285,16.2953592 C18.5016667,16.0764933 18.8533333,16.0764933 19.0705556,16.2953592 C20.9594444,18.203982 22,20.7405817 22,23.4388054 C22,23.7485848 21.7516667,24 21.4444444,24 L21.4444444,24 L21.4444444,24 Z M9.07166667,13.7755954 C6.85611111,12.6818271 5.33333333,10.3848575 5.33333333,7.73433535 C5.33333333,4.0209106 8.32388889,1 12,1 C15.6761111,1 18.6666667,4.0209106 18.6666667,7.73433535 C18.6666667,11.4483213 15.6761111,14.4686707 12,14.4686707 L11.8766667,14.4624976 C9.54666667,14.4928021 7.36333333,15.4238239 5.715,17.0894495 C4.03555556,18.7859409 3.11111111,21.0402596 3.11111111,23.4388054 C3.11111111,23.7485848 2.86277778,24 2.55555556,24 C2.24833333,24 2,23.7485848 2,23.4388054 C2,20.7405817 3.04,18.203982 4.92944444,16.2959204 C6.10444444,15.1084326 7.52166667,14.2526108 9.07166667,13.7755954 L9.07166667,13.7755954 L9.07166667,13.7755954 Z M12.06,13.3434755 C15.0961111,13.3126098 17.5555556,10.8079982 17.5555556,7.73433535 C17.5555556,4.64046945 15.0633333,2.12238923 12,2.12238923 C8.93666667,2.12238923 6.44444444,4.64046945 6.44444444,7.73433535 C6.44444444,10.7883564 8.87166667,13.2800605 11.8772222,13.3401083 L11.9988889,13.3373024 L12.06,13.3434755 L12.06,13.3434755 L12.06,13.3434755 Z" id="Shape" stroke="#48B4FF" stroke-width="0.5" fill="#48B4FF"></path>
                <rect opacity="0.5" x="0.154541016" y="0.588256836" width="24" height="24"></rect>
            </g>
        </g>
    </g>
</svg>